<svg width="184" height="32" viewBox="0 0 184 32" fill="none" xmlns="http://www.w3.org/2000/svg">
<rect width="184" height="32" fill="#212121"/>
<path d="M25.0633 20.8564H32.1365V23.7832H21V8H25.0633V20.8564Z" fill="white"/>
<path d="M46.279 17.0949H39.8888V20.8564H47.4366V23.7832H35.8255V8H47.4598V10.9377H39.8888V14.2656H46.279V17.0949Z" fill="white"/>
<path d="M60.6415 20.8347H55.0732L54.1008 23.7832H49.7596L55.9414 8H59.7617L65.9898 23.7832H61.6255L60.6415 20.8347ZM56.0456 17.897H59.669L57.8515 12.4228L56.0456 17.897Z" fill="white"/>
<path d="M75.467 18.2114H73.2675V23.7832H69.2041V8H75.8374C77.8363 8 79.3991 8.41554 80.5259 9.24661C81.6526 10.0777 82.216 11.252 82.216 12.7696C82.216 13.8681 81.9768 14.7787 81.4983 15.5014C81.0275 16.224 80.2866 16.8094 79.2756 17.2575L82.7948 23.6206V23.7832H78.4421L75.467 18.2114ZM73.2675 15.2737H75.8374C76.6092 15.2737 77.188 15.0858 77.5739 14.71C77.9675 14.327 78.1643 13.7958 78.1643 13.1165C78.1643 12.4372 77.9675 11.9061 77.5739 11.523C77.1803 11.1328 76.6015 10.9377 75.8374 10.9377H73.2675V15.2737Z" fill="white"/>
<path d="M100.723 23.7832H96.6827L90.7092 13.9621V23.7832H86.6459V8H90.7092L96.6711 17.8211V8H100.723V23.7832Z" fill="white"/>
<path d="M109.598 23.7832H105.546V8H109.598V23.7832Z" fill="white"/>
<path d="M128.475 23.7832H124.435L118.462 13.9621V23.7832H114.398V8H118.462L124.424 17.8211V8H128.475V23.7832Z" fill="white"/>
<path d="M139.735 8H143.787V18.8293C143.787 19.8338 143.536 20.7299 143.035 21.5176C142.541 22.3053 141.846 22.916 140.951 23.3496C140.063 23.7832 139.072 24 137.976 24C136.139 24 134.711 23.5664 133.692 22.6992C132.674 21.832 132.164 20.6034 132.164 19.0136H136.239C136.239 19.7362 136.37 20.2602 136.633 20.5854C136.903 20.9106 137.351 21.0732 137.976 21.0732C138.539 21.0732 138.971 20.878 139.272 20.4878C139.581 20.0903 139.735 19.5375 139.735 18.8293V8Z" fill="white"/>
<path d="M157.652 20.8347H152.083L151.111 23.7832H146.77L152.952 8H156.772L163 23.7832H158.636L157.652 20.8347ZM153.056 17.897H156.679L154.862 12.4228L153.056 17.897Z" fill="white"/>
</svg>
