<svg width="142" height="16" viewBox="0 0 142 16" fill="none" xmlns="http://www.w3.org/2000/svg">
	<path d="M4.06332 12.8564H11.1365V15.7832H0V0H4.06332V12.8564Z" fill="#212121"/>
	<path d="M25.279 9.09485H18.8888V12.8564H26.4366V15.7832H14.8255V0H26.4598V2.93767H18.8888V6.26558H25.279V9.09485Z" fill="#212121"/>
	<path d="M39.6415 12.8347H34.0732L33.1008 15.7832H28.7596L34.9414 0H38.7617L44.9898 15.7832H40.6255L39.6415 12.8347ZM35.0456 9.89702H38.669L36.8515 4.42276L35.0456 9.89702Z" fill="#212121"/>
	<path d="M54.467 10.2114H52.2675V15.7832H48.2041V0H54.8374C56.8363 0 58.3991 0.415538 59.5259 1.24661C60.6526 2.07769 61.216 3.25203 61.216 4.76965C61.216 5.86811 60.9768 6.77868 60.4983 7.50136C60.0275 8.22403 59.2866 8.80939 58.2756 9.25745L61.7948 15.6206V15.7832H57.4421L54.467 10.2114ZM52.2675 7.27371H54.8374C55.6092 7.27371 56.188 7.08582 56.5739 6.71003C56.9675 6.32701 57.1643 5.79585 57.1643 5.11653C57.1643 4.43722 56.9675 3.90605 56.5739 3.52304C56.1803 3.13279 55.6015 2.93767 54.8374 2.93767H52.2675V7.27371Z" fill="#212121"/>
	<path d="M79.7228 15.7832H75.6827L69.7092 5.96206V15.7832H65.6459V0H69.7092L75.6711 9.82114V0H79.7228V15.7832Z" fill="#212121"/>
	<path d="M88.5981 15.7832H84.5463V0H88.5981V15.7832Z" fill="#212121"/>
	<path d="M107.475 15.7832H103.435L97.4617 5.96206V15.7832H93.3984V0H97.4617L103.424 9.82114V0H107.475V15.7832Z" fill="#212121"/>
	<path d="M118.735 0H122.787V10.8293C122.787 11.8338 122.536 12.7299 122.035 13.5176C121.541 14.3053 120.846 14.916 119.951 15.3496C119.063 15.7832 118.072 16 116.976 16C115.139 16 113.711 15.5664 112.692 14.6992C111.674 13.832 111.164 12.6034 111.164 11.0136H115.239C115.239 11.7362 115.37 12.2602 115.633 12.5854C115.903 12.9106 116.351 13.0732 116.976 13.0732C117.539 13.0732 117.971 12.878 118.272 12.4878C118.581 12.0903 118.735 11.5375 118.735 10.8293V0Z" fill="#212121"/>
	<path d="M136.652 12.8347H131.083L130.111 15.7832H125.77L131.952 0H135.772L142 15.7832H137.636L136.652 12.8347ZM132.056 9.89702H135.679L133.862 4.42276L132.056 9.89702Z" fill="#212121"/>
</svg>