<svg viewBox="0 0 464 768" fill="none" xmlns="http://www.w3.org/2000/svg" preserveAspectRatio="none">
<mask id="mask0" mask-type="alpha" maskUnits="userSpaceOnUse" x="0" y="0" width="464" height="768">
<rect width="464" height="768" fill="url(#paint0_linear)"/>
</mask>
<g mask="url(#mask0)">
<rect width="464" height="768" fill="white"/>
<path d="M241.021 10.0956C255.585 8.6672 269.465 12.4758 280.854 19.9896C305.076 -0.985671 335.683 -14.9046 369.851 -18.2556C458.512 -26.9509 537.516 38.7518 546.317 128.49C555.118 218.234 490.384 298.028 401.723 306.724C372.99 309.541 345.269 304.534 320.626 293.439C295.123 335.292 251.266 365.004 199.128 370.117C110.472 378.812 31.4639 313.115 22.6625 223.371C21.8423 215.009 21.6631 206.732 22.082 198.59C18.3317 199.531 14.4706 200.213 10.5092 200.601C-33.4939 204.917 -72.7057 172.309 -77.0739 127.769C-81.4416 83.2331 -49.3124 43.6238 -5.3093 39.3083C29.5136 35.8931 61.3126 55.615 75.2407 86.0573C99.9165 63.5983 131.652 48.63 167.256 45.1381C175.466 44.3329 183.592 44.1714 191.586 44.6005C200.755 25.8957 218.954 12.2598 241.021 10.0956Z" fill="url(#paint1_linear)"/>
<path d="M241.021 10.0956C255.585 8.6672 269.465 12.4758 280.854 19.9896C305.076 -0.985671 335.683 -14.9046 369.851 -18.2556C458.512 -26.9509 537.516 38.7518 546.317 128.49C555.118 218.234 490.384 298.028 401.723 306.724C372.99 309.541 345.269 304.534 320.626 293.439C295.123 335.292 251.266 365.004 199.128 370.117C110.472 378.812 31.4639 313.115 22.6625 223.371C21.8423 215.009 21.6631 206.732 22.082 198.59C18.3317 199.531 14.4706 200.213 10.5092 200.601C-33.4939 204.917 -72.7057 172.309 -77.0739 127.769C-81.4416 83.2331 -49.3124 43.6238 -5.3093 39.3083C29.5136 35.8931 61.3126 55.615 75.2407 86.0573C99.9165 63.5983 131.652 48.63 167.256 45.1381C175.466 44.3329 183.592 44.1714 191.586 44.6005C200.755 25.8957 218.954 12.2598 241.021 10.0956Z" fill="#212121" fill-opacity="0.1"/>
<path d="M241.021 10.0956C255.585 8.6672 269.465 12.4758 280.854 19.9896C305.076 -0.985671 335.683 -14.9046 369.851 -18.2556C458.512 -26.9509 537.516 38.7518 546.317 128.49C555.118 218.234 490.384 298.028 401.723 306.724C372.99 309.541 345.269 304.534 320.626 293.439C295.123 335.292 251.266 365.004 199.128 370.117C110.472 378.812 31.4639 313.115 22.6625 223.371C21.8423 215.009 21.6631 206.732 22.082 198.59C18.3317 199.531 14.4706 200.213 10.5092 200.601C-33.4939 204.917 -72.7057 172.309 -77.0739 127.769C-81.4416 83.2331 -49.3124 43.6238 -5.3093 39.3083C29.5136 35.8931 61.3126 55.615 75.2407 86.0573C99.9165 63.5983 131.652 48.63 167.256 45.1381C175.466 44.3329 183.592 44.1714 191.586 44.6005C200.755 25.8957 218.954 12.2598 241.021 10.0956Z" fill="#F2F4F8"/>
<path d="M-114.495 342.752C-119.402 376.918 -96.1278 408.528 -62.5103 413.356C-30.2855 417.984 -0.274178 396.315 6.48406 364.424C37.3162 362.178 65.1391 345.697 82.5011 320.655C89.6798 325.754 98.114 329.272 107.395 330.605C117.377 332.039 127.129 330.782 135.953 327.391C147.735 356.746 170.248 380.949 199.28 394.275C198.916 395.894 198.595 397.536 198.355 399.207C193.448 433.372 216.722 464.982 250.34 469.81C283.957 474.639 315.186 450.857 320.093 416.691C321.649 405.862 320.364 395.294 316.828 385.753C346.431 366.672 368.001 335.09 373.451 297.143C383.337 228.307 336.446 164.617 268.711 154.888C235.345 150.096 203.15 159.302 177.885 178.095C172.998 152.847 152.926 132.365 126.405 128.556C102.457 125.117 79.7277 136.204 66.857 155.214C62.6483 120.792 36.3029 92.1562 0.850212 87.0644C-41.6952 80.954 -81.2174 111.051 -87.4275 154.29L-114.495 342.752Z" fill="url(#paint2_linear)"/>
<path d="M-114.495 342.752C-119.402 376.918 -96.1278 408.528 -62.5103 413.356C-30.2855 417.984 -0.274178 396.315 6.48406 364.424C37.3162 362.178 65.1391 345.697 82.5011 320.655C89.6798 325.754 98.114 329.272 107.395 330.605C117.377 332.039 127.129 330.782 135.953 327.391C147.735 356.746 170.248 380.949 199.28 394.275C198.916 395.894 198.595 397.536 198.355 399.207C193.448 433.372 216.722 464.982 250.34 469.81C283.957 474.639 315.186 450.857 320.093 416.691C321.649 405.862 320.364 395.294 316.828 385.753C346.431 366.672 368.001 335.09 373.451 297.143C383.337 228.307 336.446 164.617 268.711 154.888C235.345 150.096 203.15 159.302 177.885 178.095C172.998 152.847 152.926 132.365 126.405 128.556C102.457 125.117 79.7277 136.204 66.857 155.214C62.6483 120.792 36.3029 92.1562 0.850212 87.0644C-41.6952 80.954 -81.2174 111.051 -87.4275 154.29L-114.495 342.752Z" fill="#212121" fill-opacity="0.05"/>
<path d="M-114.495 342.752C-119.402 376.918 -96.1278 408.528 -62.5103 413.356C-30.2855 417.984 -0.274178 396.315 6.48406 364.424C37.3162 362.178 65.1391 345.697 82.5011 320.655C89.6798 325.754 98.114 329.272 107.395 330.605C117.377 332.039 127.129 330.782 135.953 327.391C147.735 356.746 170.248 380.949 199.28 394.275C198.916 395.894 198.595 397.536 198.355 399.207C193.448 433.372 216.722 464.982 250.34 469.81C283.957 474.639 315.186 450.857 320.093 416.691C321.649 405.862 320.364 395.294 316.828 385.753C346.431 366.672 368.001 335.09 373.451 297.143C383.337 228.307 336.446 164.617 268.711 154.888C235.345 150.096 203.15 159.302 177.885 178.095C172.998 152.847 152.926 132.365 126.405 128.556C102.457 125.117 79.7277 136.204 66.857 155.214C62.6483 120.792 36.3029 92.1562 0.850212 87.0644C-41.6952 80.954 -81.2174 111.051 -87.4275 154.29L-114.495 342.752Z" fill="#E6EBF3"/>
<path d="M511.031 171.262C501.481 135.176 464.758 113.594 429.009 123.055C394.74 132.125 373.828 166.427 380.559 201.036C350.598 216.356 329.683 244.566 322.882 276.858C313.525 274.829 303.579 274.907 293.71 277.519C283.094 280.329 273.849 285.718 266.438 292.838C242.192 268.623 209.371 254.089 174.619 253.148C174.298 251.381 173.924 249.611 173.457 247.846C163.906 211.76 127.184 190.178 91.4344 199.639C55.6846 209.101 34.4465 246.024 43.9972 282.109C47.0243 293.547 52.7882 303.52 60.3749 311.515C38.7764 343.069 30.5263 383.655 41.134 423.735C60.3763 496.44 134.365 539.928 206.396 520.864C241.878 511.473 270.258 488.648 287.629 459.221C303.222 482.275 332.021 494.142 360.225 486.677C385.692 479.937 403.784 459.256 408.637 434.875C427.436 467.347 465.978 484.666 503.679 474.688C548.923 462.713 575.801 415.986 563.714 370.317L511.031 171.262Z" fill="url(#paint3_linear)"/>
<path d="M511.031 171.262C501.481 135.176 464.758 113.594 429.009 123.055C394.74 132.125 373.828 166.427 380.559 201.036C350.598 216.356 329.683 244.566 322.882 276.858C313.525 274.829 303.579 274.907 293.71 277.519C283.094 280.329 273.849 285.718 266.438 292.838C242.192 268.623 209.371 254.089 174.619 253.148C174.298 251.381 173.924 249.611 173.457 247.846C163.906 211.76 127.184 190.178 91.4344 199.639C55.6846 209.101 34.4465 246.024 43.9972 282.109C47.0243 293.547 52.7882 303.52 60.3749 311.515C38.7764 343.069 30.5263 383.655 41.134 423.735C60.3763 496.44 134.365 539.928 206.396 520.864C241.878 511.473 270.258 488.648 287.629 459.221C303.222 482.275 332.021 494.142 360.225 486.677C385.692 479.937 403.784 459.256 408.637 434.875C427.436 467.347 465.978 484.666 503.679 474.688C548.923 462.713 575.801 415.986 563.714 370.317L511.031 171.262Z" fill="#212121" fill-opacity="0.05"/>
<path d="M511.031 171.262C501.481 135.176 464.758 113.594 429.009 123.055C394.74 132.125 373.828 166.427 380.559 201.036C350.598 216.356 329.683 244.566 322.882 276.858C313.525 274.829 303.579 274.907 293.71 277.519C283.094 280.329 273.849 285.718 266.438 292.838C242.192 268.623 209.371 254.089 174.619 253.148C174.298 251.381 173.924 249.611 173.457 247.846C163.906 211.76 127.184 190.178 91.4344 199.639C55.6846 209.101 34.4465 246.024 43.9972 282.109C47.0243 293.547 52.7882 303.52 60.3749 311.515C38.7764 343.069 30.5263 383.655 41.134 423.735C60.3763 496.44 134.365 539.928 206.396 520.864C241.878 511.473 270.258 488.648 287.629 459.221C303.222 482.275 332.021 494.142 360.225 486.677C385.692 479.937 403.784 459.256 408.637 434.875C427.436 467.347 465.978 484.666 503.679 474.688C548.923 462.713 575.801 415.986 563.714 370.317L511.031 171.262Z" fill="#DBE1EA"/>
<path d="M131.885 280.643C124.413 288.113 119.861 283.561 112.389 291.032C104.919 298.503 109.471 303.056 102 310.528L110.896 310.015L113.837 322.365C121.308 314.893 116.756 310.34 124.227 302.869C131.698 295.398 136.25 299.95 143.722 292.48L131.885 280.643Z" fill="#3B52D0"/>
<path d="M150.216 298.974C142.745 306.444 138.192 301.892 130.72 309.363C123.249 316.835 127.802 321.387 120.331 328.859L129.228 328.346L132.168 340.696C139.64 333.224 135.086 328.672 142.557 321.2C150.029 313.729 154.582 318.282 162.053 310.811L150.216 298.974Z" fill="#3B52D0"/>
<path d="M133.011 367.999C133.011 338.395 157.011 314.395 186.615 314.395C216.221 314.395 240.22 338.395 240.22 367.999H133.011Z" fill="#3B52D0"/>
<path d="M133.011 368H221.186L170.171 316.969C148.611 323.911 133.011 344.132 133.011 368Z" fill="#2B2B2B"/>
<path d="M240.22 368H152.045L203.059 316.969C224.619 323.911 240.22 344.132 240.22 368Z" fill="#3B3B3B"/>
<path d="M191.649 314.631C189.992 314.478 188.313 314.395 186.615 314.395C157.011 314.395 133.011 338.395 133.011 367.999H143.078C143.078 340.092 164.405 317.169 191.649 314.631Z" fill="#212121"/>
<path d="M244.204 265.589C244.204 297.395 218.42 323.177 186.615 323.177C154.81 323.177 129.026 297.395 129.026 265.589C129.026 233.784 154.81 208 186.615 208C218.42 208 244.204 233.784 244.204 265.589Z" fill="#2B2B2B"/>
<path d="M138.684 265.589C138.684 235.41 161.898 210.656 191.444 208.203C189.852 208.071 188.242 208 186.615 208C154.81 208 129.026 233.784 129.026 265.589C129.026 297.395 154.81 323.177 186.615 323.177C188.242 323.177 189.852 323.106 191.444 322.974C161.9 320.521 138.684 295.767 138.684 265.589Z" fill="#212121"/>
<path d="M129.026 265.589C129.026 266.999 129.08 268.397 129.18 269.782C129.4 269.799 129.62 269.81 129.843 269.81H243.388C243.61 269.81 243.831 269.799 244.05 269.782C244.15 268.397 244.204 266.999 244.204 265.589C244.204 261.203 243.711 256.933 242.782 252.829H130.447C129.519 256.933 129.026 261.203 129.026 265.589Z" fill="#212121"/>
<path d="M186.616 312.146C168.658 312.146 154.101 297.588 154.101 279.631V264.983H219.13V279.631C219.13 297.588 204.574 312.146 186.616 312.146Z" fill="#F7C2AD"/>
<path d="M219.13 269.812V264.983H154.101V279.631C154.101 297.588 168.658 312.146 186.616 312.146C187.702 312.146 188.776 312.092 189.835 311.988C173.388 310.372 160.539 296.502 160.539 279.631V271.395C160.539 270.521 161.248 269.812 162.122 269.812H219.13Z" fill="#EFB5A0"/>
<path d="M129.844 264.983H243.389C245.627 264.983 247.408 263.078 247.228 260.846C246.716 254.562 245.196 248.565 242.829 243.014C242.225 241.596 240.83 240.677 239.288 240.677H133.944C132.402 240.677 131.007 241.596 130.403 243.014C128.036 248.565 126.516 254.563 126.005 260.846C125.824 263.078 127.605 264.983 129.844 264.983Z" fill="url(#paint4_linear)"/>
<path d="M135.662 260.846C136.174 254.562 137.694 248.565 140.059 243.014C140.665 241.596 142.06 240.677 143.602 240.677H133.944C132.402 240.677 131.007 241.596 130.402 243.014C128.035 248.565 126.517 254.562 126.005 260.846C125.823 263.077 127.604 264.982 129.843 264.982H139.501C137.263 264.983 135.48 263.078 135.662 260.846Z" fill="#3B52D0"/>
<path d="M218.009 288.117L203.567 283.118C192.583 279.317 180.639 279.317 169.655 283.121L155.221 288.117C158.955 301.959 171.594 312.144 186.615 312.144C201.636 312.144 214.275 301.957 218.009 288.117Z" fill="url(#paint5_linear)"/>
<path d="M161.177 286.058L155.223 288.119C158.956 301.96 171.595 312.146 186.616 312.146C187.694 312.146 188.758 312.088 189.809 311.985C175.52 310.569 163.952 299.903 161.177 286.058Z" fill="#3B52D0"/>
<path d="M207.12 279.594C205.825 279.594 204.776 278.546 204.776 277.25V273.596C204.776 272.301 205.825 271.252 207.12 271.252C208.414 271.252 209.464 272.301 209.464 273.596V277.25C209.464 278.546 208.414 279.594 207.12 279.594Z" fill="#212121" fill-opacity="0.95"/>
<path d="M166.112 279.594C164.818 279.594 163.768 278.546 163.768 277.25V273.596C163.768 272.301 164.818 271.252 166.112 271.252C167.407 271.252 168.456 272.301 168.456 273.596V277.25C168.456 278.546 167.407 279.594 166.112 279.594Z" fill="#212121" fill-opacity="0.95"/>
<path d="M41.2804 292.746C25.7866 291.859 11.2439 296.493 -0.500751 304.945C-27.0701 283.762 -60.1006 270.332 -96.4499 268.253C-190.771 262.857 -271.655 335.879 -277.115 431.346C-282.577 526.818 -210.547 608.582 -116.226 613.977C-85.6593 615.726 -56.501 609.226 -30.8675 596.409C-2.04128 639.658 45.7096 669.252 101.176 672.425C195.491 677.82 276.38 604.804 281.841 509.331C282.35 500.435 282.184 491.658 281.389 483.048C285.403 483.883 289.524 484.439 293.738 484.68C340.55 487.358 380.695 451.118 383.406 403.734C386.116 356.356 350.366 315.769 303.554 313.091C266.508 310.972 233.662 333.239 220.215 366.096C193.101 343.361 158.829 328.867 120.952 326.7C112.218 326.201 103.601 326.38 95.1493 327.178C84.6272 307.753 64.7566 294.088 41.2804 292.746Z" fill="url(#paint6_linear)"/>
<path d="M41.2804 292.746C25.7866 291.859 11.2439 296.493 -0.500751 304.945C-27.0701 283.762 -60.1006 270.332 -96.4499 268.253C-190.771 262.857 -271.655 335.879 -277.115 431.346C-282.577 526.818 -210.547 608.582 -116.226 613.977C-85.6593 615.726 -56.501 609.226 -30.8675 596.409C-2.04128 639.658 45.7096 669.252 101.176 672.425C195.491 677.82 276.38 604.804 281.841 509.331C282.35 500.435 282.184 491.658 281.389 483.048C285.403 483.883 289.524 484.439 293.738 484.68C340.55 487.358 380.695 451.118 383.406 403.734C386.116 356.356 350.366 315.769 303.554 313.091C266.508 310.972 233.662 333.239 220.215 366.096C193.101 343.361 158.829 328.867 120.952 326.7C112.218 326.201 103.601 326.38 95.1493 327.178C84.6272 307.753 64.7566 294.088 41.2804 292.746Z" fill="#212121" fill-opacity="0.05"/>
<path d="M41.2804 292.746C25.7866 291.859 11.2439 296.493 -0.500751 304.945C-27.0701 283.762 -60.1006 270.332 -96.4499 268.253C-190.771 262.857 -271.655 335.879 -277.115 431.346C-282.577 526.818 -210.547 608.582 -116.226 613.977C-85.6593 615.726 -56.501 609.226 -30.8675 596.409C-2.04128 639.658 45.7096 669.252 101.176 672.425C195.491 677.82 276.38 604.804 281.841 509.331C282.35 500.435 282.184 491.658 281.389 483.048C285.403 483.883 289.524 484.439 293.738 484.68C340.55 487.358 380.695 451.118 383.406 403.734C386.116 356.356 350.366 315.769 303.554 313.091C266.508 310.972 233.662 333.239 220.215 366.096C193.101 343.361 158.829 328.867 120.952 326.7C112.218 326.201 103.601 326.38 95.1493 327.178C84.6272 307.753 64.7566 294.088 41.2804 292.746Z" fill="#CDD4DE"/>
<path d="M401.026 464.641V400.636H296.662V464.641C296.662 467.354 298.862 469.554 301.576 469.554H396.113C398.827 469.554 401.026 467.354 401.026 464.641Z" fill="#212121"/>
<path d="M297.418 489C297.418 460.598 320.443 437.574 348.845 437.574C377.246 437.574 400.271 460.598 400.271 489H297.418Z" fill="#F7C2AD"/>
<path d="M353.533 437.789C351.988 437.649 350.425 437.574 348.845 437.574C320.443 437.574 297.418 460.598 297.418 489H306.793C306.793 462.179 327.328 440.157 353.533 437.789Z" fill="#EFB5A0"/>
<path d="M348.845 437.574C333.668 437.574 320.029 444.149 310.616 454.605V489H387.074V454.605C377.661 444.149 364.021 437.574 348.845 437.574Z" fill="url(#paint7_linear)"/>
<path d="M353.531 437.789C351.987 437.649 350.424 437.574 348.845 437.574C333.668 437.574 320.028 444.149 310.615 454.605V469.519C317.729 452.154 334.063 439.548 353.531 437.789Z" fill="#BA5282"/>
<path d="M322.731 444.692C330.628 448.53 339.49 450.687 348.845 450.687C358.199 450.687 367.06 448.53 374.958 444.692C367.305 440.169 358.379 437.574 348.845 437.574C339.311 437.574 330.384 440.169 322.731 444.692Z" fill="#BA5282"/>
<path d="M412.439 393.825C412.439 399.874 407.535 404.776 401.487 404.776C395.438 404.776 390.534 399.874 390.534 393.825C390.534 387.777 395.438 382.873 401.487 382.873C407.535 382.873 412.439 387.777 412.439 393.825Z" fill="#EFB5A0"/>
<path d="M307.154 393.825C307.154 399.874 302.251 404.776 296.202 404.776C290.154 404.776 285.25 399.874 285.25 393.825C285.25 387.777 290.154 382.873 296.202 382.873C302.251 382.873 307.154 387.777 307.154 393.825Z" fill="#EAAA96"/>
<path d="M404.093 390.75C404.093 421.263 379.358 445.998 348.845 445.998C318.331 445.998 293.596 421.263 293.596 390.75C293.596 360.237 318.331 335.501 348.845 335.501C379.358 335.501 404.093 360.237 404.093 390.75Z" fill="#F7C2AD"/>
<path d="M303.254 390.75C303.254 361.865 325.422 338.161 353.673 335.713C352.081 335.575 350.472 335.501 348.845 335.501C318.331 335.501 293.596 360.237 293.596 390.75C293.596 421.263 318.331 445.999 348.845 445.999C350.472 445.999 352.081 445.923 353.673 445.787C325.422 443.339 303.254 419.635 303.254 390.75Z" fill="#EFB5A0"/>
<path d="M332.678 440.169L329.668 489H368.022L365.011 440.169C359.928 438.487 354.493 437.574 348.845 437.574C343.197 437.574 337.762 438.487 332.678 440.169Z" fill="#F7C2AD"/>
<path d="M348.845 450.686C354.627 450.686 360.22 449.861 365.514 448.325L365.011 440.169C359.927 438.487 354.492 437.574 348.845 437.574C343.197 437.574 337.762 438.487 332.678 440.169L332.175 448.325C337.469 449.861 343.061 450.686 348.845 450.686Z" fill="#EFB5A0"/>
<path d="M293.747 386.656H403.941C403.216 376.75 399.879 367.569 394.615 359.799H303.073C297.81 367.569 294.472 376.75 293.747 386.656Z" fill="url(#paint8_linear)"/>
<path d="M303.073 359.799C297.81 367.569 294.472 376.75 293.747 386.656H321.639C328.929 383.974 334.542 380.707 338.683 377.699C343.248 374.384 346.56 371.029 348.845 368.3C351.129 371.029 354.441 374.384 359.006 377.699C363.147 380.707 368.76 383.974 376.05 386.656H403.941C403.216 376.75 399.879 367.569 394.615 359.799H303.073Z" fill="#BA5282"/>
<path d="M348.845 402.854C327.584 402.854 310.593 412.04 301.139 418.627C310.727 435 328.499 445.999 348.845 445.999C369.189 445.999 386.961 435 396.55 418.627C387.097 412.039 370.105 402.854 348.845 402.854Z" fill="url(#paint9_linear)"/>
<path d="M348.845 329C315.787 329 288.797 354.975 287.173 387.629C334.958 387.629 348.845 360.185 348.845 360.185C348.845 360.185 362.73 387.629 410.516 387.629C408.891 354.975 381.902 329 348.845 329Z" fill="#2B2B2B"/>
<path d="M353.532 329.176C351.985 329.06 350.422 329 348.845 329C315.787 329 288.797 354.975 287.173 387.629C290.466 387.629 293.592 387.495 296.571 387.252C298.298 356.332 322.771 331.485 353.532 329.176Z" fill="#212121"/>
<path d="M329.668 488.999H368.021L366.101 457.854H331.588L329.668 488.999Z" fill="#3B3B3B"/>
<path d="M308.175 414.18C305.51 415.704 303.152 417.225 301.139 418.628C310.727 435.001 328.499 446 348.845 446C350.416 446 351.97 445.925 353.508 445.797C333.398 444.099 316.358 431.631 308.175 414.18Z" fill="#BA5282"/>
<path d="M368.747 400.91C367.452 400.91 366.404 399.861 366.404 398.566V395.019C366.404 393.723 367.452 392.675 368.747 392.675C370.042 392.675 371.091 393.723 371.091 395.019V398.566C371.091 399.861 370.042 400.91 368.747 400.91Z" fill="#212121" fill-opacity="0.95"/>
<path d="M328.941 400.91C327.647 400.91 326.598 399.861 326.598 398.566V395.019C326.598 393.723 327.647 392.675 328.941 392.675C330.236 392.675 331.285 393.723 331.285 395.019V398.566C331.285 399.861 330.235 400.91 328.941 400.91Z" fill="#212121" fill-opacity="0.95"/>
<path d="M185.755 755.515C197.379 785.619 230.814 800.752 260.435 789.314C288.83 778.351 303.393 746.955 294.318 717.859C318.433 701.927 333.584 675.763 336.289 647.402C344.476 648.277 352.962 647.289 361.14 644.131C369.935 640.735 377.313 635.25 382.957 628.449C405.99 646.998 435.417 656.439 465.186 654.028C465.63 655.515 466.119 657 466.688 658.473C478.312 688.577 511.747 703.709 541.368 692.272C570.99 680.835 585.579 647.159 573.955 617.055C570.271 607.513 564.39 599.482 557.143 593.32C572.556 564.221 575.702 528.603 562.792 495.167C539.372 434.513 472.007 404.022 412.323 427.067C382.923 438.418 360.88 460.649 348.873 487.529C333.34 469.176 307.606 461.653 284.237 470.676C263.135 478.824 249.672 498.26 247.87 519.647C228.695 493.503 194.116 482.201 162.877 494.262C125.389 508.737 106.925 551.355 121.636 589.454L185.755 755.515Z" fill="url(#paint10_linear)"/>
<path d="M185.755 755.515C197.379 785.619 230.814 800.752 260.435 789.314C288.83 778.351 303.393 746.955 294.318 717.859C318.433 701.927 333.584 675.763 336.289 647.402C344.476 648.277 352.962 647.289 361.14 644.131C369.935 640.735 377.313 635.25 382.957 628.449C405.99 646.998 435.417 656.439 465.186 654.028C465.63 655.515 466.119 657 466.688 658.473C478.312 688.577 511.747 703.709 541.368 692.272C570.99 680.835 585.579 647.159 573.955 617.055C570.271 607.513 564.39 599.482 557.143 593.32C572.556 564.221 575.702 528.603 562.792 495.167C539.372 434.513 472.007 404.022 412.323 427.067C382.923 438.418 360.88 460.649 348.873 487.529C333.34 469.176 307.606 461.653 284.237 470.676C263.135 478.824 249.672 498.26 247.87 519.647C228.695 493.503 194.116 482.201 162.877 494.262C125.389 508.737 106.925 551.355 121.636 589.454L185.755 755.515Z" fill="#212121" fill-opacity="0.05"/>
<path d="M185.755 755.515C197.379 785.619 230.814 800.752 260.435 789.314C288.83 778.351 303.393 746.955 294.318 717.859C318.433 701.927 333.584 675.763 336.289 647.402C344.476 648.277 352.962 647.289 361.14 644.131C369.935 640.735 377.313 635.25 382.957 628.449C405.99 646.998 435.417 656.439 465.186 654.028C465.63 655.515 466.119 657 466.688 658.473C478.312 688.577 511.747 703.709 541.368 692.272C570.99 680.835 585.579 647.159 573.955 617.055C570.271 607.513 564.39 599.482 557.143 593.32C572.556 564.221 575.702 528.603 562.792 495.167C539.372 434.513 472.007 404.022 412.323 427.067C382.923 438.418 360.88 460.649 348.873 487.529C333.34 469.176 307.606 461.653 284.237 470.676C263.135 478.824 249.672 498.26 247.87 519.647C228.695 493.503 194.116 482.201 162.877 494.262C125.389 508.737 106.925 551.355 121.636 589.454L185.755 755.515Z" fill="#E6EBF3"/>
<path d="M73.3971 597.969L60.975 610.389L37.5726 586.985C34.1425 583.555 34.1425 577.995 37.5726 574.565C41.0013 571.135 46.5631 571.135 49.9933 574.565L73.3971 597.969Z" fill="#3B3B3B"/>
<path d="M41.5109 572.295C40.0674 572.679 38.7033 573.435 37.5726 574.567C34.1425 577.997 34.1425 583.557 37.5726 586.988L60.9765 610.391L67.1868 604.181L43.7829 580.777C41.485 578.479 40.7281 575.225 41.5109 572.295Z" fill="#2B2B2B"/>
<path d="M60.9741 610.389L73.3947 597.969L107.228 631.802L94.8073 644.223L60.9741 610.389Z" fill="#ACACAC"/>
<path d="M60.9741 610.39L67.1844 604.18L101.018 638.014L94.8073 644.225L60.9741 610.39Z" fill="#212121" fill-opacity="0.3"/>
<path d="M84.2389 598.013L61.0196 621.231C60.307 621.943 59.1519 621.943 58.4394 621.231L50.134 612.927C49.4214 612.213 49.4214 611.058 50.134 610.345L73.3517 587.127C74.0643 586.413 75.2209 586.413 75.9335 587.127L84.2389 595.431C84.9515 596.144 84.9515 597.3 84.2389 598.013Z" fill="#FFD600"/>
<path d="M66.9751 612.694L58.6713 604.388C57.9587 603.676 57.9587 602.519 58.6713 601.807L50.134 610.344C49.4214 611.056 49.4214 612.212 50.134 612.926L58.4394 621.23C59.1519 621.942 60.307 621.942 61.0211 621.23L69.5569 612.694C68.8443 613.406 67.6892 613.406 66.9751 612.694Z" fill="#E7CE5F"/>
<path d="M186.543 597.969L198.963 610.389L222.367 586.985C225.797 583.555 225.797 577.995 222.367 574.565C218.939 571.135 213.377 571.135 209.947 574.565L186.543 597.969Z" fill="#3C3C3C"/>
<path d="M218.429 572.295C219.873 572.679 221.237 573.435 222.368 574.567C225.798 577.997 225.798 583.557 222.368 586.988L198.964 610.391L192.754 604.181L216.157 580.777C218.455 578.479 219.212 575.225 218.429 572.295Z" fill="#2B2B2B"/>
<path d="M165.13 644.224L152.71 631.804L186.543 597.969L198.964 610.389L165.13 644.224Z" fill="#212121" fill-opacity="0.3"/>
<path d="M158.916 638.014L192.751 604.18L198.961 610.39L165.126 644.225L158.916 638.014Z" fill="#212121" fill-opacity="0.3"/>
<path d="M175.7 598.013L198.919 621.231C199.632 621.943 200.787 621.943 201.5 621.231L209.805 612.927C210.518 612.213 210.518 611.058 209.805 610.345L186.587 587.127C185.875 586.413 184.718 586.413 184.006 587.127L175.7 595.431C174.988 596.144 174.988 597.3 175.7 598.013Z" fill="#FFD600"/>
<path d="M192.965 612.694L201.269 604.388C201.981 603.676 201.981 602.519 201.269 601.807L209.806 610.342C210.518 611.056 210.518 612.212 209.806 612.924L201.501 621.23C200.788 621.942 199.631 621.942 198.919 621.23L190.383 612.694C191.096 613.406 192.251 613.406 192.965 612.694Z" fill="#E7CE5F"/>
<path d="M62.9638 669.999C62.9638 632.993 92.9625 602.993 129.968 602.993C166.975 602.993 196.974 632.993 196.974 669.999H62.9638Z" fill="#212121"/>
<path d="M196.974 670H86.7552L150.523 606.211C177.473 614.889 196.974 640.165 196.974 670Z" fill="#2B2B2B"/>
<path d="M109.033 669.99H86.7552L150.514 606.211C155.906 607.949 161.001 610.352 165.701 613.322L109.033 669.99Z" fill="url(#paint11_linear)"/>
<path d="M62.9638 670H173.182L109.415 606.211C82.4645 614.889 62.9638 640.165 62.9638 670Z" fill="#2B2B2B"/>
<path d="M136.261 603.289C134.189 603.097 132.091 602.993 129.968 602.993C92.9625 602.993 62.9638 632.993 62.9638 669.999H75.5477C75.5477 635.114 102.206 606.461 136.261 603.289Z" fill="#212121"/>
<path d="M150.894 669.99H173.172L109.415 606.211C104.021 607.949 98.9256 610.352 94.226 613.322L150.894 669.99Z" fill="url(#paint12_linear)"/>
<path d="M113.038 609.838L109.415 606.211C104.021 607.949 98.9256 610.352 94.226 613.322L99.536 618.632C103.645 615.186 108.177 612.227 113.038 609.838Z" fill="#CB556A"/>
<path d="M201.954 541.986C201.954 581.743 169.725 613.971 129.968 613.971C90.2129 613.971 57.9833 581.743 57.9833 541.986C57.9833 502.23 90.2129 470 129.968 470C169.725 470 201.954 502.23 201.954 541.986Z" fill="#2B2B2B"/>
<path d="M70.0545 541.986C70.0545 504.262 99.0736 473.32 136.004 470.253C134.015 470.089 132.002 470 129.968 470C90.2129 470 57.9833 502.23 57.9833 541.986C57.9833 581.743 90.2129 613.971 129.968 613.971C132.002 613.971 134.015 613.882 136.004 613.718C99.0736 610.651 70.0545 579.709 70.0545 541.986Z" fill="#212121"/>
<path d="M57.9833 541.985C57.9833 543.748 58.0489 545.495 58.1741 547.227C58.4487 547.248 58.7249 547.262 59.0026 547.262H200.935C201.213 547.262 201.489 547.248 201.764 547.227C201.887 545.495 201.954 543.748 201.954 541.985C201.954 536.503 201.338 531.165 200.178 526.035H59.7595C58.5983 531.165 57.9833 536.503 57.9833 541.985Z" fill="#212121"/>
<path d="M156.349 572.599L147.373 568.863C136.235 564.225 123.706 564.225 112.567 568.863L103.592 572.599C92.8484 577.073 81.0107 569.18 81.0107 557.542C81.0107 548.532 88.3135 541.23 97.3223 541.23H162.619C171.628 541.23 178.931 548.533 178.931 557.542C178.931 569.18 167.093 577.073 156.349 572.599Z" fill="#F7C2AD"/>
<path d="M59.0028 541.228H200.935C203.734 541.228 205.96 538.846 205.732 536.057C205.093 528.202 203.195 520.705 200.236 513.767C199.479 511.994 197.737 510.845 195.81 510.845H64.1282C62.201 510.845 60.4585 511.994 59.7016 513.767C56.7429 520.705 54.8448 528.203 54.2054 536.057C53.9781 538.846 56.2043 541.228 59.0028 541.228Z" fill="url(#paint13_linear)"/>
<path d="M66.2781 536.057C66.9175 528.202 68.8157 520.705 71.7743 513.767C72.5297 511.994 74.2737 510.845 76.2009 510.845H64.1282C62.201 510.845 60.4585 511.994 59.7016 513.767C56.7429 520.705 54.8448 528.202 54.2054 536.057C53.9781 538.845 56.2043 541.226 59.0028 541.226H71.0755C68.277 541.228 66.0508 538.846 66.2781 536.057Z" fill="#B05488"/>
<path d="M45.5072 582.5L39.2968 588.71L43.5647 592.978L49.775 586.769C50.9545 585.59 50.9545 583.679 49.775 582.5C48.5971 581.322 46.6851 581.322 45.5072 582.5Z" fill="#212121"/>
<path d="M52.6287 589.62L46.4184 595.83L50.6863 600.098L56.8966 593.888C58.0746 592.71 58.0746 590.798 56.8966 589.62C55.7171 588.44 53.8067 588.44 52.6287 589.62Z" fill="#212121"/>
<path d="M214.432 582.5C213.254 581.322 211.342 581.322 210.164 582.5C208.985 583.679 208.985 585.59 210.164 586.769L216.374 592.978L220.642 588.71L214.432 582.5Z" fill="#212121"/>
<path d="M207.309 589.62C206.131 588.44 204.221 588.44 203.041 589.62C201.863 590.798 201.863 592.708 203.041 593.888L209.252 600.098L213.52 595.83L207.309 589.62Z" fill="#212121"/>
<path d="M155.598 559.49C153.98 559.49 152.668 558.18 152.668 556.561V551.992C152.668 550.373 153.98 549.062 155.598 549.062C157.217 549.062 158.528 550.373 158.528 551.992V556.561C158.528 558.18 157.217 559.49 155.598 559.49Z" fill="#212121" fill-opacity="0.95"/>
<path d="M104.341 559.49C102.722 559.49 101.411 558.18 101.411 556.561V551.992C101.411 550.373 102.722 549.062 104.341 549.062C105.958 549.062 107.27 550.373 107.27 551.992V556.561C107.27 558.18 105.958 559.49 104.341 559.49Z" fill="#212121" fill-opacity="0.95"/>
<path d="M443.226 805.185C434.222 804.823 426.079 801.324 419.769 795.776C403.218 806.518 383.371 812.415 362.247 811.564C307.433 809.357 264.812 762.59 267.046 707.11C269.28 651.627 315.523 608.441 370.337 610.649C388.101 611.364 404.585 616.766 418.675 625.621C437.776 602.254 467.043 587.847 499.276 589.145C554.087 591.352 596.712 638.116 594.477 693.599C594.269 698.769 593.677 703.832 592.732 708.763C595.099 708.507 597.512 708.418 599.961 708.517C627.166 709.612 648.32 732.823 647.211 760.359C646.102 787.893 623.15 809.33 595.946 808.235C574.417 807.368 556.692 792.645 550.776 772.897C533.823 784.506 513.198 790.947 491.186 790.061C486.11 789.856 481.141 789.266 476.302 788.327C469.124 798.959 456.869 805.735 443.226 805.185Z" fill="url(#paint14_linear)"/>
<path d="M443.226 805.185C434.222 804.823 426.079 801.324 419.769 795.776C403.218 806.518 383.371 812.415 362.247 811.564C307.433 809.357 264.812 762.59 267.046 707.11C269.28 651.627 315.523 608.441 370.337 610.649C388.101 611.364 404.585 616.766 418.675 625.621C437.776 602.254 467.043 587.847 499.276 589.145C554.087 591.352 596.712 638.116 594.477 693.599C594.269 698.769 593.677 703.832 592.732 708.763C595.099 708.507 597.512 708.418 599.961 708.517C627.166 709.612 648.32 732.823 647.211 760.359C646.102 787.893 623.15 809.33 595.946 808.235C574.417 807.368 556.692 792.645 550.776 772.897C533.823 784.506 513.198 790.947 491.186 790.061C486.11 789.856 481.141 789.266 476.302 788.327C469.124 798.959 456.869 805.735 443.226 805.185Z" fill="#212121" fill-opacity="0.05"/>
<path d="M443.226 805.185C434.222 804.823 426.079 801.324 419.769 795.776C403.218 806.518 383.371 812.415 362.247 811.564C307.433 809.357 264.812 762.59 267.046 707.11C269.28 651.627 315.523 608.441 370.337 610.649C388.101 611.364 404.585 616.766 418.675 625.621C437.776 602.254 467.043 587.847 499.276 589.145C554.087 591.352 596.712 638.116 594.477 693.599C594.269 698.769 593.677 703.832 592.732 708.763C595.099 708.507 597.512 708.418 599.961 708.517C627.166 709.612 648.32 732.823 647.211 760.359C646.102 787.893 623.15 809.33 595.946 808.235C574.417 807.368 556.692 792.645 550.776 772.897C533.823 784.506 513.198 790.947 491.186 790.061C486.11 789.856 481.141 789.266 476.302 788.327C469.124 798.959 456.869 805.735 443.226 805.185Z" fill="#F2F4F8"/>
<path d="M-110.075 588.361C-107.395 549.426 -74.1665 520.002 -35.8559 522.639C0.867525 525.167 28.9057 556.241 28.8118 593.102C62.365 602.899 89.2144 627.719 102.468 659.523C111.614 655.588 121.773 653.699 132.349 654.427C143.725 655.21 154.208 658.913 163.159 664.756C183.148 635.098 213.778 613.681 249.036 605.836C249.017 603.959 249.052 602.068 249.183 600.164C251.863 561.229 285.092 531.804 323.402 534.441C361.713 537.078 390.596 570.778 387.916 609.713C387.067 622.054 383.14 633.433 376.967 643.142C405.167 671.259 421.522 711.291 418.545 754.536C413.145 832.981 346.196 892.269 269.005 886.956C230.982 884.339 197.573 866.524 174.1 839.754C162.708 866.507 135.659 884.389 105.435 882.309C78.1439 880.43 55.6463 862.781 45.9269 838.712C33.1083 875.768 -2.81045 901.176 -43.2124 898.395C-91.6973 895.058 -128.251 852.409 -124.859 803.133L-110.075 588.361Z" fill="url(#paint15_linear)"/>
<path d="M-110.075 588.361C-107.395 549.426 -74.1665 520.002 -35.8559 522.639C0.867525 525.167 28.9057 556.241 28.8118 593.102C62.365 602.899 89.2144 627.719 102.468 659.523C111.614 655.588 121.773 653.699 132.349 654.427C143.725 655.21 154.208 658.913 163.159 664.756C183.148 635.098 213.778 613.681 249.036 605.836C249.017 603.959 249.052 602.068 249.183 600.164C251.863 561.229 285.092 531.804 323.402 534.441C361.713 537.078 390.596 570.778 387.916 609.713C387.067 622.054 383.14 633.433 376.967 643.142C405.167 671.259 421.522 711.291 418.545 754.536C413.145 832.981 346.196 892.269 269.005 886.956C230.982 884.339 197.573 866.524 174.1 839.754C162.708 866.507 135.659 884.389 105.435 882.309C78.1439 880.43 55.6463 862.781 45.9269 838.712C33.1083 875.768 -2.81045 901.176 -43.2124 898.395C-91.6973 895.058 -128.251 852.409 -124.859 803.133L-110.075 588.361Z" fill="#212121" fill-opacity="0.05"/>
<path d="M-110.075 588.361C-107.395 549.426 -74.1665 520.002 -35.8559 522.639C0.867525 525.167 28.9057 556.241 28.8118 593.102C62.365 602.899 89.2144 627.719 102.468 659.523C111.614 655.588 121.773 653.699 132.349 654.427C143.725 655.21 154.208 658.913 163.159 664.756C183.148 635.098 213.778 613.681 249.036 605.836C249.017 603.959 249.052 602.068 249.183 600.164C251.863 561.229 285.092 531.804 323.402 534.441C361.713 537.078 390.596 570.778 387.916 609.713C387.067 622.054 383.14 633.433 376.967 643.142C405.167 671.259 421.522 711.291 418.545 754.536C413.145 832.981 346.196 892.269 269.005 886.956C230.982 884.339 197.573 866.524 174.1 839.754C162.708 866.507 135.659 884.389 105.435 882.309C78.1439 880.43 55.6463 862.781 45.9269 838.712C33.1083 875.768 -2.81045 901.176 -43.2124 898.395C-91.6973 895.058 -128.251 852.409 -124.859 803.133L-110.075 588.361Z" fill="#F2F4F8"/>
</g>
<defs>
<linearGradient id="paint0_linear" x1="88.4872" y1="235.5" x2="525.891" y2="592.579" gradientUnits="userSpaceOnUse">
<stop stop-color="#367FF6"/>
<stop offset="0.98913" stop-color="#7457E6"/>
</linearGradient>
<linearGradient id="paint1_linear" x1="300.358" y1="619.397" x2="239.704" y2="-129.883" gradientUnits="userSpaceOnUse">
<stop stop-color="#3371D6"/>
<stop offset="1" stop-color="#55D8C4"/>
</linearGradient>
<linearGradient id="paint2_linear" x1="176.621" y1="35.3549" x2="17.253" y2="612.395" gradientUnits="userSpaceOnUse">
<stop stop-color="#62D9A0"/>
<stop offset="1" stop-color="#3092C9"/>
</linearGradient>
<linearGradient id="paint3_linear" x1="419.162" y1="3.61142" x2="378.081" y2="855.483" gradientUnits="userSpaceOnUse">
<stop offset="0.302083" stop-color="#68CE97"/>
<stop offset="1" stop-color="#367FF6"/>
</linearGradient>
<linearGradient id="paint4_linear" x1="251" y1="227.001" x2="45.9997" y2="310.001" gradientUnits="userSpaceOnUse">
<stop stop-color="#367FF6"/>
<stop offset="1" stop-color="#7457E6"/>
</linearGradient>
<linearGradient id="paint5_linear" x1="228" y1="273.502" x2="66.0004" y2="379.002" gradientUnits="userSpaceOnUse">
<stop stop-color="#367FF6"/>
<stop offset="1" stop-color="#7457E6"/>
</linearGradient>
<linearGradient id="paint6_linear" x1="66.3061" y1="767.05" x2="8.25505" y2="-100.243" gradientUnits="userSpaceOnUse">
<stop stop-color="#33C4AD"/>
<stop offset="1" stop-color="#EFE95E"/>
</linearGradient>
<linearGradient id="paint7_linear" x1="401.999" y1="410" x2="305.999" y2="626" gradientUnits="userSpaceOnUse">
<stop stop-color="#FF7B52"/>
<stop offset="1" stop-color="#7457E6"/>
</linearGradient>
<linearGradient id="paint8_linear" x1="365.999" y1="351.998" x2="306.999" y2="464.498" gradientUnits="userSpaceOnUse">
<stop stop-color="#FF7B52"/>
<stop offset="1" stop-color="#7457E6"/>
</linearGradient>
<linearGradient id="paint9_linear" x1="412.5" y1="376.499" x2="262" y2="536.999" gradientUnits="userSpaceOnUse">
<stop stop-color="#FF7B52"/>
<stop offset="1" stop-color="#7457E6"/>
</linearGradient>
<linearGradient id="paint10_linear" x1="296.5" y1="106.5" x2="451.5" y2="849" gradientUnits="userSpaceOnUse">
<stop stop-color="#E9EC4B"/>
<stop offset="1" stop-color="#35C5AF"/>
</linearGradient>
<linearGradient id="paint11_linear" x1="188.047" y1="596.25" x2="90.5468" y2="699.375" gradientUnits="userSpaceOnUse">
<stop stop-color="#FF7B52"/>
<stop offset="1" stop-color="#7457E6"/>
</linearGradient>
<linearGradient id="paint12_linear" x1="158.672" y1="606.25" x2="59.9218" y2="690" gradientUnits="userSpaceOnUse">
<stop stop-color="#FF7B52"/>
<stop offset="1" stop-color="#7457E6"/>
</linearGradient>
<linearGradient id="paint13_linear" x1="224.921" y1="492.5" x2="-52.5779" y2="584.375" gradientUnits="userSpaceOnUse">
<stop offset="0.109375" stop-color="#FF7B52"/>
<stop offset="1" stop-color="#7457E6"/>
</linearGradient>
<linearGradient id="paint14_linear" x1="478" y1="404.5" x2="370.5" y2="906.5" gradientUnits="userSpaceOnUse">
<stop stop-color="#ECE549"/>
<stop offset="1" stop-color="#51DAC5"/>
</linearGradient>
<linearGradient id="paint15_linear" x1="81.2439" y1="-9.12414" x2="-10.7171" y2="1007.2" gradientUnits="userSpaceOnUse">
<stop stop-color="#FFD600"/>
<stop offset="1" stop-color="#74E3D2"/>
</linearGradient>
</defs>
</svg>
