<svg width="1368" height="292" viewBox="0 0 1368 292" fill="none" xmlns="http://www.w3.org/2000/svg">
<mask id="mask0" mask-type="alpha" maskUnits="userSpaceOnUse" x="0" y="0" width="1368" height="292">
<rect width="1368" height="292" fill="#C4C4C4"/>
</mask>
<g mask="url(#mask0)">
<rect width="1368" height="292" fill="#F8F8F8"/>
<path d="M1542 351.754C1542 386.958 1513.92 415.496 1479.28 415.496C1446.08 415.496 1418.92 389.268 1416.72 356.092C1385.92 349.354 1360.22 328.681 1346.32 300.882C1338.34 304.989 1329.31 307.318 1319.75 307.318C1309.46 307.318 1299.8 304.635 1291.38 299.932C1275.23 327.859 1249 349.03 1217.75 358.273C1217.89 359.962 1217.97 361.665 1217.97 363.387C1217.97 398.591 1189.89 427.128 1155.25 427.128C1120.61 427.128 1092.53 398.591 1092.53 363.387C1092.53 352.229 1095.36 341.746 1100.32 332.626C1073.2 309.07 1056 274.059 1056 234.959C1056 164.031 1112.57 106.53 1182.37 106.53C1216.75 106.53 1247.92 120.492 1270.7 143.128C1279.29 118.348 1302.53 100.58 1329.85 100.58C1354.53 100.58 1375.87 115.069 1386.11 136.127C1395.35 101.986 1426.1 76.896 1462.63 76.896C1506.46 76.896 1542 113.012 1542 157.565V351.754Z" fill="#EAECF0"/>
<path d="M744.017 345.628C753.028 345.628 761.305 342.46 767.833 337.171C783.938 348.569 803.532 355.26 824.673 355.26C879.532 355.26 924 310.246 924 254.721C924 199.193 879.532 154.182 824.673 154.182C806.895 154.182 790.207 158.917 775.772 167.197C757.627 143.081 728.964 127.508 696.704 127.508C641.848 127.508 597.377 172.519 597.377 228.047C597.377 233.221 597.765 238.304 598.511 243.269C596.156 242.918 593.749 242.732 591.298 242.732C564.071 242.732 542 265.072 542 292.631C542 320.187 564.071 342.531 591.298 342.531C612.844 342.531 631.147 328.533 637.853 309.039C654.325 321.32 674.674 328.586 696.704 328.586C701.784 328.586 706.773 328.197 711.646 327.453C718.39 338.365 730.362 345.628 744.017 345.628Z" fill="#EAECF0"/>
<g clip-path="url(#clip0)">
<path d="M1123.25 159.79C1123.25 153.893 1121.2 148.476 1117.78 144.203C1125.15 133.663 1129.48 120.84 1129.48 107.004C1129.48 71.1023 1100.37 42 1064.47 42C1028.57 42 999.469 71.1023 999.469 107.004C999.469 118.639 1002.53 129.561 1007.88 139.008C992.291 150.883 982.222 169.642 982.222 190.754C982.222 226.654 1011.32 255.758 1047.23 255.758C1050.57 255.758 1053.86 255.505 1057.07 255.017C1056.84 256.558 1056.72 258.133 1056.72 259.737C1056.72 277.556 1071.17 292 1088.98 292C1106.8 292 1121.25 277.556 1121.25 259.737C1121.25 245.636 1112.2 233.658 1099.59 229.269C1107.53 218.489 1112.23 205.172 1112.23 190.754C1112.23 187.43 1111.98 184.164 1111.5 180.975C1118.55 176.562 1123.25 168.726 1123.25 159.79Z" fill="#EAECF0"/>
<path d="M921.47 292C921.47 245.743 958.968 208.243 1005.23 208.243C1051.48 208.243 1088.98 245.743 1088.98 292H921.47Z" fill="#212121" fill-opacity="0.95"/>
<path d="M1013.09 208.613C1010.5 208.372 1007.88 208.243 1005.23 208.243C958.968 208.243 921.47 245.743 921.47 292H937.2C937.2 248.394 970.523 212.578 1013.09 208.613Z" fill="#535860"/>
<path d="M984.063 216.797L979.533 212.263C972.791 214.436 966.422 217.44 960.547 221.151L967.185 227.789C972.323 223.482 977.986 219.784 984.063 216.797Z" fill="#CB556A"/>
<path d="M1095.21 131.983C1095.21 181.679 1054.92 221.964 1005.23 221.964C955.531 221.964 915.244 181.679 915.244 131.983C915.244 82.287 955.531 42 1005.23 42C1054.92 42 1095.21 82.287 1095.21 131.983Z" fill="#2B2B2B"/>
<path d="M930.335 131.983C930.335 84.8276 966.607 46.1504 1012.77 42.3166C1010.28 42.1106 1007.77 42 1005.23 42C955.531 42 915.244 82.287 915.244 131.983C915.244 181.679 955.531 221.964 1005.23 221.964C1007.77 221.964 1010.28 221.853 1012.77 221.647C966.607 217.814 930.335 179.136 930.335 131.983Z" fill="#535860"/>
<path d="M915.244 131.983C915.244 134.186 915.328 136.37 915.482 138.535C915.826 138.561 916.171 138.579 916.518 138.579H1093.93C1094.28 138.579 1094.63 138.561 1094.97 138.535C1095.13 136.37 1095.21 134.186 1095.21 131.983C1095.21 125.13 1094.44 118.458 1092.99 112.045H917.464C916.015 118.458 915.244 125.13 915.244 131.983Z" fill="#212121"/>
<path d="M1038.2 170.246L1026.98 165.575C1013.06 159.779 997.395 159.779 983.474 165.575L972.253 170.246C958.823 175.839 944.026 165.972 944.026 151.425C944.026 140.162 953.154 131.035 964.415 131.035H1046.04C1057.3 131.035 1066.43 140.164 1066.43 151.425C1066.43 165.972 1051.63 175.839 1038.2 170.246Z" fill="#F7C2AD"/>
<path d="M1046.04 131.035H964.415C953.154 131.035 944.026 140.164 944.026 151.425C944.026 165.863 958.606 175.684 971.955 170.361C964.62 167.412 959.117 160.292 959.117 151.425C959.117 151.375 959.117 151.327 959.117 151.278C959.166 144.224 965.014 138.579 972.068 138.579H1061.87C1058.13 133.976 1052.43 131.035 1046.04 131.035Z" fill="#EFB5A0"/>
<path d="M916.518 131.035H1093.93C1097.43 131.035 1100.21 128.057 1099.93 124.571C1099.13 114.752 1096.76 105.381 1093.06 96.7082C1092.12 94.4919 1089.94 93.0557 1087.53 93.0557H922.925C920.518 93.0557 918.338 94.4919 917.392 96.7082C913.693 105.381 911.321 114.754 910.521 124.571C910.237 128.057 913.022 131.035 916.518 131.035Z" fill="url(#paint0_linear)"/>
<path d="M925.612 124.571C926.412 114.752 928.784 105.381 932.483 96.7082C933.429 94.4919 935.607 93.0557 938.016 93.0557H922.925C920.518 93.0557 918.338 94.4919 917.392 96.7082C913.693 105.381 911.321 114.752 910.521 124.571C910.237 128.056 913.022 131.033 916.518 131.033H931.609C928.111 131.035 925.328 128.057 925.612 124.571Z" fill="#CB556A"/>
<path d="M1020.1 292C1037.92 292 1052.36 277.556 1052.36 259.737C1052.36 242.657 1039.08 228.687 1022.29 227.556C1018.88 211.712 1008.42 198.492 994.347 191.343C996.426 187.235 997.605 182.593 997.605 177.674C997.605 172.383 996.247 167.412 993.867 163.082C1008 154.774 1018.72 141.277 1023.4 125.206C1024.25 125.275 1025.11 125.319 1025.98 125.319C1043.8 125.319 1058.25 110.874 1058.25 93.0559C1058.25 75.2375 1043.8 60.7931 1025.98 60.7931C1020.34 60.7931 1015.03 62.2484 1010.41 64.7966C998.492 50.8463 980.771 42 960.98 42C925.08 42 895.976 71.1023 895.976 107.004C895.976 124.689 903.043 140.722 914.5 152.441C901.957 156.862 892.964 168.814 892.964 182.871C892.964 195.564 900.298 206.541 910.956 211.807C893.676 216.561 880.977 232.378 880.977 251.169C880.977 273.72 899.257 292 921.807 292H1020.1Z" fill="#EAECF0"/>
<path d="M1052.36 259.737C1052.36 242.657 1039.08 228.687 1022.29 227.556C1018.88 211.712 1008.42 198.492 994.347 191.343C996.426 187.235 997.605 182.593 997.605 177.673C997.605 172.382 996.247 167.412 993.867 163.082C1008 154.774 1018.72 141.277 1023.4 125.206C1024.25 125.275 1025.11 125.319 1025.98 125.319C1043.8 125.319 1058.25 110.874 1058.25 93.0559C1058.25 75.2374 1043.8 60.7931 1025.98 60.7931C1020.34 60.7931 1015.03 62.2484 1010.41 64.7966C1002.76 55.8397 992.709 48.9904 981.259 45.2329C943.2 55.7252 915.244 90.5858 915.244 131.981C915.244 169.703 938.456 201.996 971.373 215.372C941.983 228.377 921.473 257.786 921.47 291.99C921.582 291.992 921.695 292 921.807 292H1020.1C1037.92 292 1052.36 277.556 1052.36 259.737Z" fill="#DADEE6"/>
<path d="M1037.26 153.866C1035.24 153.866 1033.6 152.227 1033.6 150.204V144.493C1033.6 142.469 1035.24 140.831 1037.26 140.831C1039.29 140.831 1040.92 142.469 1040.92 144.493V150.204C1040.92 152.227 1039.29 153.866 1037.26 153.866Z" fill="#212121" fill-opacity="0.95"/>
</g>
</g>
<defs>
<linearGradient id="paint0_linear" x1="938.5" y1="148.501" x2="1100" y2="85.501" gradientUnits="userSpaceOnUse">
<stop stop-color="#7457E6"/>
<stop offset="1" stop-color="#FF7B52"/>
</linearGradient>
<clipPath id="clip0">
<rect width="250" height="250" fill="white" transform="translate(880 42)"/>
</clipPath>
</defs>
</svg>
