<svg width="24" height="24" viewBox="0 0 24 24" fill="none" xmlns="http://www.w3.org/2000/svg">
<path d="M24 4H0V20.0002H24V4Z" fill="#F0F0F0"/>
<path d="M13.5 3.99976H10.5V10.4997H0V13.4997H10.5V19.9997H13.5V13.4997H24V10.4997H13.5V3.99976Z" fill="#D80027"/>
<path d="M18.458 14.7825L23.9994 17.861V14.7825H18.458Z" fill="#0052B4"/>
<path d="M14.6084 14.7825L23.9997 19.9998V18.5245L17.2641 14.7825H14.6084Z" fill="#0052B4"/>
<path d="M21.4982 19.9996L14.6084 16.1716V19.9996H21.4982Z" fill="#0052B4"/>
<path d="M14.6084 14.7825L23.9997 19.9998V18.5245L17.2641 14.7825H14.6084Z" fill="#F0F0F0"/>
<path d="M14.6084 14.7825L23.9997 19.9998V18.5245L17.2641 14.7825H14.6084Z" fill="#D80027"/>
<path d="M4.23473 14.7822L0 17.1349V14.7822H4.23473Z" fill="#0052B4"/>
<path d="M9.39174 15.4458V19.9998H1.19531L9.39174 15.4458Z" fill="#0052B4"/>
<path d="M6.73561 14.7825L0 18.5245V19.9998L9.39131 14.7825H6.73561Z" fill="#D80027"/>
<path d="M5.54133 9.21723L0 6.13867V9.21723H5.54133Z" fill="#0052B4"/>
<path d="M9.39131 9.21713L0 3.99976V5.4751L6.73561 9.21713H9.39131Z" fill="#0052B4"/>
<path d="M2.50195 3.99976L9.39174 7.82776V3.99976H2.50195Z" fill="#0052B4"/>
<path d="M9.39131 9.21713L0 3.99976V5.4751L6.73561 9.21713H9.39131Z" fill="#F0F0F0"/>
<path d="M9.39131 9.21713L0 3.99976V5.4751L6.73561 9.21713H9.39131Z" fill="#D80027"/>
<path d="M19.7646 9.21691L23.9994 6.86426V9.21691H19.7646Z" fill="#0052B4"/>
<path d="M14.6084 8.5537V3.99976H22.8048L14.6084 8.5537Z" fill="#0052B4"/>
<path d="M17.2641 9.21713L23.9997 5.4751V3.99976L14.6084 9.21713H17.2641Z" fill="#D80027"/>
</svg>
