<svg width="20" height="20" viewBox="0 0 20 20" fill="none" xmlns="http://www.w3.org/2000/svg">
<path fill-rule="evenodd" clip-rule="evenodd" d="M1.66663 9.99935C1.66663 5.39935 5.39996 1.66602 9.99996 1.66602C14.6 1.66602 18.3333 5.39935 18.3333 9.99935C18.3333 14.5993 14.6 18.3327 9.99996 18.3327C5.39996 18.3327 1.66663 14.5993 1.66663 9.99935ZM10.8333 9.16602V14.166H9.16663V9.16602H10.8333ZM9.99996 16.666C6.32496 16.666 3.33329 13.6743 3.33329 9.99935C3.33329 6.32435 6.32496 3.33268 9.99996 3.33268C13.675 3.33268 16.6666 6.32435 16.6666 9.99935C16.6666 13.6743 13.675 16.666 9.99996 16.666ZM10.8333 5.83268V7.49935H9.16663V5.83268H10.8333Z" fill="#909090"/>
</svg>
