<svg width="240" height="240" viewBox="0 0 240 240" fill="none" xmlns="http://www.w3.org/2000/svg">
	<rect width="240" height="240" fill="url(#paint0_linear)"/>
	<path d="M47.2197 240C47.2197 200.034 79.6183 167.634 119.586 167.634C159.552 167.634 191.952 200.034 191.952 240H47.2197Z" fill="#FFD600"/>
	<path d="M191.952 240H72.916L141.785 171.107C170.89 180.481 191.952 207.779 191.952 240Z" fill="#2B2B2B"/>
	<path d="M47.2197 240H166.256L97.3864 171.107C68.2804 180.481 47.2197 207.779 47.2197 240Z" fill="#3B3B3B"/>
	<path d="M101.117 174.84L97.3864 171.107C68.2804 180.481 47.2197 207.779 47.2197 240H60.2583C60.2583 211.327 76.9354 186.554 101.117 174.84Z" fill="#212121"/>
	<path d="M194.172 107.364C194.172 148.556 160.778 181.95 119.586 181.95C78.3939 181.95 45 148.556 45 107.364C45 66.1722 78.3939 32.7783 119.586 32.7783C160.778 32.7783 194.172 66.1722 194.172 107.364Z" fill="#3B3B3B"/>
	<path d="M119.586 172.38C88.8695 172.38 63.9707 147.481 63.9707 116.765V97.959C63.9707 67.243 88.8695 42.3442 119.586 42.3442C150.3 42.3442 175.2 67.2447 175.2 97.959V116.765C175.2 147.481 150.3 172.38 119.586 172.38Z" fill="#DFE0E0"/>
	<path d="M77.0092 116.765V97.959C77.0092 69.4496 98.4622 45.9549 126.105 42.7266C123.966 42.4761 121.79 42.3442 119.586 42.3442C88.8695 42.3442 63.9707 67.2447 63.9707 97.959V116.765C63.9707 147.481 88.8695 172.38 119.586 172.38C121.79 172.38 123.966 172.248 126.105 171.998C98.4622 168.771 77.0092 145.275 77.0092 116.765Z" fill="#C9CACA"/>
	<path d="M156.561 128.403C138.983 128.403 127.007 115.8 119.835 115.8C112.665 115.8 100.689 128.403 83.1125 128.403C73.3188 128.403 59.1926 128.403 48.5996 128.403C58.0374 158.773 86.3622 180.824 119.837 180.824C153.312 180.824 181.635 158.772 191.074 128.403C180.478 128.403 166.353 128.403 156.561 128.403Z" fill="#3B3B3B"/>
	<path d="M57.6562 107.364C57.6562 68.303 87.6834 36.2604 125.914 33.0486C123.828 32.8723 121.717 32.7783 119.586 32.7783C78.3923 32.7783 45 66.1722 45 107.364C45 148.556 78.3923 181.95 119.586 181.95C121.717 181.95 123.828 181.855 125.914 181.68C87.6834 178.466 57.6562 146.425 57.6562 107.364Z" fill="#212121"/>
	<path d="M170.013 24.9035L167.782 33.6393C164.865 45.0645 156.573 54.3539 145.553 58.5479C136.778 61.8883 133.884 72.8669 139.874 80.0981C144.464 85.6401 152.557 86.6882 158.407 82.4991L161.642 80.1821C173.227 71.8864 178.876 57.5723 176.083 43.6011L172.355 24.9661C172.105 23.7121 170.33 23.6659 170.013 24.9035Z" fill="#FFD600"/>
	<path d="M69.157 24.9035L71.3883 33.6393C74.3068 45.0645 82.5993 54.3539 93.6174 58.5479C102.394 61.8883 105.288 72.8669 99.2979 80.0981C94.7084 85.6401 86.6137 86.6882 80.7651 82.4991L77.5302 80.1821C65.9452 71.8864 60.2944 57.5723 63.0893 43.6011L66.8153 24.9661C67.0674 23.7121 68.8423 23.6659 69.157 24.9035Z" fill="#FFD600"/>
	<path d="M83.3858 70.7206C70.4758 66.1294 68.1044 34.4477 67.6726 24.0459C67.2705 24.1514 66.9195 24.4579 66.8173 24.9655L63.0897 43.6004C60.2964 57.5733 65.9456 71.8857 77.5306 80.1814L80.7655 82.4984C85.1688 85.6526 90.8444 85.8355 95.3383 83.3719C95.3383 83.3719 98.8682 76.2247 83.3858 70.7206Z" fill="#E3C41E"/>
	<path d="M155.785 70.7206C168.696 66.1294 171.066 34.4477 171.498 24.0459C171.902 24.1514 172.253 24.4579 172.355 24.9655L176.081 43.6004C178.876 57.5733 173.225 71.8857 161.64 80.1814L158.405 82.4984C154.002 85.6526 148.328 85.8355 143.834 83.3719C143.834 83.3719 140.302 76.2247 155.785 70.7206Z" fill="#E3C41E"/>
	<path d="M147.265 109.658C145.518 109.658 144.101 108.241 144.101 106.494V101.558C144.101 99.8096 145.518 98.394 147.265 98.394C149.013 98.394 150.429 99.8096 150.429 101.558V106.494C150.429 108.241 149.013 109.658 147.265 109.658Z" fill="#212121" fill-opacity="0.95"/>
	<path d="M91.9053 109.658C90.1584 109.658 88.7412 108.241 88.7412 106.494V101.558C88.7412 99.8096 90.1584 98.394 91.9053 98.394C93.6521 98.394 95.0693 99.8096 95.0693 101.558V106.494C95.0693 108.241 93.6521 109.658 91.9053 109.658Z" fill="#212121" fill-opacity="0.95"/>
	<path d="M119.579 107.646C103.516 107.646 88.5479 103.893 77.4342 97.0758C75.9445 96.1629 75.4765 94.215 76.3894 92.7253C77.304 91.2355 79.2519 90.7691 80.7416 91.6821C90.7282 97.8059 104.884 101.318 119.579 101.318C134.275 101.318 148.431 97.8059 158.417 91.6821C159.907 90.7691 161.855 91.2355 162.768 92.7253C163.681 94.215 163.215 96.1629 161.725 97.0758C150.61 103.893 135.643 107.646 119.579 107.646Z" fill="#2B2B2B"/>
	<defs>
	<linearGradient id="paint0_linear" x1="140" y1="-23" x2="102" y2="550" gradientUnits="userSpaceOnUse">
	<stop stop-color="#7457E6"/>
	<stop offset="1" stop-color="#131B6A"/>
	</linearGradient>
	</defs>
</svg>
