<svg width="80" height="80" viewBox="0 0 80 80" fill="none" xmlns="http://www.w3.org/2000/svg">
<rect width="80" height="80" fill="url(#paint0_linear)"/>
<path d="M15.8135 79.9999C15.8135 66.6764 26.6143 55.875 39.9378 55.875C53.2619 55.875 64.0627 66.6764 64.0627 79.9999H15.8135Z" fill="#2B2B2B"/>
<path d="M42.2035 55.9816C41.4574 55.9124 40.702 55.875 39.9378 55.875C26.6143 55.875 15.8135 66.6764 15.8135 79.9999H20.3442C20.3442 67.44 29.9424 57.1237 42.2035 55.9816Z" fill="#212121"/>
<path d="M65.8561 33.9103C65.8561 48.2244 54.2521 59.8278 39.938 59.8278C25.6245 59.8278 14.0205 48.2244 14.0205 33.9103C14.0205 19.5962 25.6245 7.99219 39.938 7.99219C54.2521 7.99219 65.8561 19.5962 65.8561 33.9103Z" fill="#2B2B2B"/>
<path d="M18.3667 33.9103C18.3667 20.328 28.8148 9.18764 42.1114 8.08338C41.395 8.02405 40.6704 7.99219 39.938 7.99219C25.6245 7.99219 14.0205 19.5962 14.0205 33.9103C14.0205 48.2244 25.6245 59.8278 39.938 59.8278C40.6704 59.8278 41.395 59.7959 42.1114 59.7366C28.8148 58.6324 18.3667 47.492 18.3667 33.9103Z" fill="#212121"/>
<path d="M14.0205 33.9067C14.0205 34.5413 14.0441 35.1703 14.0892 35.7938C14.1881 35.8015 14.2875 35.8065 14.3875 35.8065H65.4891C65.5891 35.8065 65.6886 35.8015 65.7874 35.7938C65.832 35.1703 65.8561 34.5413 65.8561 33.9067C65.8561 31.9328 65.6342 30.0111 65.2166 28.1641H14.66C14.2419 30.0111 14.0205 31.9328 14.0205 33.9067Z" fill="#212121"/>
<path d="M49.4356 44.927L46.2036 43.5815C42.1937 41.912 37.6827 41.912 33.6723 43.5815L30.4408 44.927C26.5726 46.5377 22.3105 43.6958 22.3105 39.5057C22.3105 36.2616 24.9399 33.6328 28.1834 33.6328H51.693C54.9366 33.6328 57.5659 36.2621 57.5659 39.5057C57.5659 43.6958 53.3038 46.5377 49.4356 44.927Z" fill="#F7C2AD"/>
<path d="M14.3873 33.6346H65.489C66.4965 33.6346 67.2981 32.777 67.2162 31.7727C66.986 28.9445 66.3026 26.2454 65.2373 23.7474C64.9648 23.109 64.3375 22.6953 63.6436 22.6953H16.2327C15.5388 22.6953 14.9114 23.109 14.6389 23.7474C13.5737 26.2454 12.8902 28.9451 12.6601 31.7727C12.5782 32.777 13.3797 33.6346 14.3873 33.6346Z" fill="url(#paint1_linear)"/>
<path d="M17.0067 31.7727C17.2369 28.9445 17.9204 26.2454 18.9856 23.7474C19.2576 23.109 19.8855 22.6953 20.5794 22.6953H16.2327C15.5388 22.6953 14.9114 23.109 14.6389 23.7474C13.5737 26.2454 12.8902 28.9445 12.6601 31.7727C12.5782 32.7764 13.3797 33.634 14.3873 33.634H18.734C17.7264 33.6346 16.9249 32.777 17.0067 31.7727Z" fill="#BE4B74"/>
<path d="M49.1652 40.2154C48.5828 40.2154 48.1104 39.7435 48.1104 39.1606V37.5157C48.1104 36.9329 48.5828 36.4609 49.1652 36.4609C49.7481 36.4609 50.22 36.9329 50.22 37.5157V39.1606C50.22 39.7435 49.7481 40.2154 49.1652 40.2154Z" fill="#212121" fill-opacity="0.95"/>
<path d="M30.7101 40.2154C30.1272 40.2154 29.6553 39.7435 29.6553 39.1606V37.5157C29.6553 36.9329 30.1272 36.4609 30.7101 36.4609C31.2924 36.4609 31.7649 36.9329 31.7649 37.5157V39.1606C31.7649 39.7435 31.2924 40.2154 30.7101 40.2154Z" fill="#212121" fill-opacity="0.95"/>
<defs>
<linearGradient id="paint0_linear" x1="62.5" y1="-34.1667" x2="23.1667" y2="189.667" gradientUnits="userSpaceOnUse">
<stop stop-color="#367FF6"/>
<stop offset="1" stop-color="#7457E6"/>
</linearGradient>
<linearGradient id="paint1_linear" x1="83.8759" y1="10.3892" x2="-47.6893" y2="59.4449" gradientUnits="userSpaceOnUse">
<stop offset="0.0989583" stop-color="#FF7B52"/>
<stop offset="1" stop-color="#7457E6"/>
</linearGradient>
</defs>
</svg>
