<svg width="240" height="240" viewBox="0 0 240 240" fill="none" xmlns="http://www.w3.org/2000/svg">
	<g clip-path="url(#clip0)">
	<rect width="240" height="240" fill="url(#paint0_linear)"/>
	<path d="M50.3441 122.062C40.257 132.148 34.1118 126.003 24.0247 136.088C13.9393 146.174 20.0845 152.32 9.99902 162.408L22.0093 161.715L25.9792 178.388C36.0646 168.301 29.9194 162.154 40.0048 152.068C50.0919 141.983 56.2371 148.128 66.3242 138.043L50.3441 122.062Z" fill="#3B52D0"/>
	<path d="M75.0882 146.812C65.0028 156.898 58.8559 150.753 48.7688 160.838C38.6834 170.925 44.8302 177.07 34.7432 187.158L46.755 186.465L50.7233 203.138C60.8104 193.051 54.6635 186.905 64.749 176.818C74.8361 166.733 80.9829 172.878 91.0683 162.793L75.0882 146.812Z" fill="#3B52D0"/>
	<path d="M51.8643 239.991C51.8643 200.025 84.2645 167.625 124.231 167.625C164.198 167.625 196.597 200.025 196.597 239.991H51.8643Z" fill="#3B52D0"/>
	<path d="M51.8643 240.01H170.9L102.031 171.117C72.925 180.489 51.8643 207.787 51.8643 240.01Z" fill="#2B2B2B"/>
	<path d="M196.597 240.01H77.5605L146.43 171.117C175.536 180.489 196.597 207.787 196.597 240.01Z" fill="#3B3B3B"/>
	<path d="M131.027 167.945C128.789 167.737 126.523 167.625 124.231 167.625C84.2645 167.625 51.8643 200.025 51.8643 239.991H65.4549C65.4549 202.316 94.2462 171.371 131.027 167.945Z" fill="#212121"/>
	<path d="M201.976 101.745C201.976 144.682 167.168 179.489 124.231 179.489C81.2933 179.489 46.4854 144.682 46.4854 101.745C46.4854 58.8079 81.2933 24 124.231 24C167.168 24 201.976 58.8079 201.976 101.745Z" fill="#2B2B2B"/>
	<path d="M59.5239 101.745C59.5239 61.003 90.8629 27.5859 130.75 24.2736C128.601 24.0956 126.427 24 124.231 24C81.2933 24 46.4854 58.8079 46.4854 101.745C46.4854 144.682 81.2933 179.489 124.231 179.489C126.427 179.489 128.601 179.393 130.75 179.215C90.8646 175.903 59.5239 142.486 59.5239 101.745Z" fill="#212121"/>
	<path d="M46.4854 101.742C46.4854 103.645 46.5579 105.532 46.693 107.402C46.9896 107.425 47.2879 107.44 47.5878 107.44H200.873C201.173 107.44 201.471 107.425 201.768 107.402C201.903 105.532 201.976 103.645 201.976 101.742C201.976 95.8205 201.31 90.056 200.056 84.5156H48.4036C47.1511 90.056 46.4854 95.8205 46.4854 101.742Z" fill="#212121"/>
	<path d="M124.23 164.592C99.9867 164.592 80.335 144.939 80.335 120.696V100.922H168.124V120.696C168.124 144.939 148.473 164.592 124.23 164.592Z" fill="#F7C2AD"/>
	<path d="M168.124 107.441V100.922H80.335V120.696C80.335 144.939 99.9867 164.592 124.23 164.592C125.696 164.592 127.147 164.518 128.575 164.378C106.373 162.196 89.0262 143.472 89.0262 120.696V109.577C89.0262 108.397 89.9837 107.441 91.1636 107.441H168.124Z" fill="#EFB5A0"/>
	<path d="M47.5895 100.923H200.875C203.897 100.923 206.302 98.3508 206.058 95.3384C205.367 86.8548 203.316 78.7584 200.12 71.2652C199.304 69.3503 197.421 68.1094 195.339 68.1094H53.1249C51.0436 68.1094 49.16 69.3503 48.3443 71.2652C45.1489 78.7584 43.0972 86.8564 42.4067 95.3384C42.1628 98.3508 44.5672 100.923 47.5895 100.923Z" fill="url(#paint1_linear)"/>
	<path d="M55.4438 95.3384C56.1343 86.8548 58.186 78.7584 61.3797 71.2652C62.1971 69.3503 64.0807 68.1094 66.1621 68.1094H53.1235C51.0422 68.1094 49.1586 69.3503 48.3428 71.2652C45.1475 78.7584 43.0974 86.8548 42.4069 95.3384C42.1614 98.3492 44.5657 100.922 47.5881 100.922H60.6266C57.6043 100.923 55.1983 98.3508 55.4438 95.3384Z" fill="#3B52D0"/>
	<path d="M166.61 132.144L147.114 125.395C132.285 120.264 116.16 120.264 101.332 125.399L81.8467 132.144C86.8877 150.83 103.951 164.58 124.229 164.58C144.507 164.58 161.569 150.828 166.61 132.144Z" fill="url(#paint2_linear)"/>
	<path d="M89.8866 129.375L81.8496 132.158C86.889 150.843 103.952 164.595 124.23 164.595C125.685 164.595 127.122 164.516 128.541 164.377C109.25 162.466 93.6341 148.066 89.8866 129.375Z" fill="#3B52D0"/>
	<path d="M151.907 120.645C150.159 120.645 148.743 119.229 148.743 117.481V112.547C148.743 110.798 150.159 109.383 151.907 109.383C153.654 109.383 155.071 110.798 155.071 112.547V117.481C155.071 119.229 153.654 120.645 151.907 120.645Z" fill="#212121" fill-opacity="0.95"/>
	<path d="M96.5478 120.645C94.801 120.645 93.3838 119.229 93.3838 117.481V112.547C93.3838 110.798 94.801 109.383 96.5478 109.383C98.2963 109.383 99.7119 110.798 99.7119 112.547V117.481C99.7119 119.229 98.2963 120.645 96.5478 120.645Z" fill="#212121" fill-opacity="0.95"/>
	</g>
	<defs>
	<linearGradient id="paint0_linear" x1="151" y1="-27" x2="113" y2="333.5" gradientUnits="userSpaceOnUse">
	<stop stop-color="#FF7B52"/>
	<stop offset="1" stop-color="#EF5350"/>
	</linearGradient>
	<linearGradient id="paint1_linear" x1="211.15" y1="49.6471" x2="-9.49999" y2="145" gradientUnits="userSpaceOnUse">
	<stop stop-color="#367FF6"/>
	<stop offset="1" stop-color="#7457E6"/>
	</linearGradient>
	<linearGradient id="paint2_linear" x1="180.099" y1="112.413" x2="34.5" y2="211" gradientUnits="userSpaceOnUse">
	<stop stop-color="#367FF6"/>
	<stop offset="1" stop-color="#7457E6"/>
	</linearGradient>
	<clipPath id="clip0">
	<rect width="240" height="240" fill="white"/>
	</clipPath>
	</defs>
</svg>
