<svg width="240" height="240" viewBox="0 0 240 240" fill="none" xmlns="http://www.w3.org/2000/svg">
	<rect width="240" height="240" fill="url(#paint0_linear)"/>
	<path d="M47.4404 240C47.4404 200.029 79.8428 167.625 119.813 167.625C159.786 167.625 192.188 200.029 192.188 240H47.4404Z" fill="#2B2B2B"/>
	<path d="M126.61 167.945C124.372 167.737 122.106 167.625 119.814 167.625C79.8428 167.625 47.4404 200.029 47.4404 240H61.0326C61.0326 202.32 89.8273 171.371 126.61 167.945Z" fill="#212121"/>
	<path d="M197.568 101.731C197.568 144.673 162.756 179.483 119.814 179.483C76.8735 179.483 42.0615 144.673 42.0615 101.731C42.0615 58.7886 76.8735 23.9766 119.814 23.9766C162.756 23.9766 197.568 58.7886 197.568 101.731Z" fill="#2B2B2B"/>
	<path d="M55.0999 101.731C55.0999 60.9839 86.4443 27.5629 126.334 24.2502C124.185 24.0722 122.011 23.9766 119.814 23.9766C76.8735 23.9766 42.0615 58.7886 42.0615 101.731C42.0615 144.673 76.8735 179.483 119.814 179.483C122.011 179.483 124.185 179.388 126.334 179.21C86.4443 175.897 55.0999 142.476 55.0999 101.731Z" fill="#212121"/>
	<path d="M42.0615 101.72C42.0615 103.624 42.1324 105.511 42.2675 107.382C42.5642 107.405 42.8625 107.419 43.1625 107.419H196.467C196.767 107.419 197.066 107.405 197.362 107.382C197.496 105.511 197.568 103.624 197.568 101.72C197.568 95.7984 196.903 90.0332 195.65 84.4922H43.98C42.7257 90.0332 42.0615 95.7984 42.0615 101.72Z" fill="#212121"/>
	<path d="M148.307 134.781L138.611 130.745C126.581 125.736 113.048 125.736 101.017 130.745L91.3224 134.781C79.7179 139.613 66.9316 131.087 66.9316 118.517C66.9316 108.785 74.8196 100.898 84.5502 100.898H155.079C164.81 100.898 172.698 108.786 172.698 118.517C172.698 131.087 159.911 139.613 148.307 134.781Z" fill="#F7C2AD"/>
	<path d="M43.1619 100.904H196.467C199.49 100.904 201.894 98.3309 201.649 95.3181C200.958 86.8335 198.908 78.7362 195.712 71.2421C194.895 69.327 193.012 68.0859 190.931 68.0859H48.698C46.6164 68.0859 44.7342 69.327 43.9168 71.2421C40.721 78.7362 38.6707 86.8352 37.9802 95.3181C37.7346 98.3309 40.1392 100.904 43.1619 100.904Z" fill="url(#paint1_linear)"/>
	<path d="M51.0202 95.3181C51.7108 86.8335 53.7611 78.7362 56.9568 71.2421C57.7727 69.327 59.6565 68.0859 61.7381 68.0859H48.698C46.6164 68.0859 44.7342 69.327 43.9168 71.2421C40.721 78.7362 38.6707 86.8335 37.9802 95.3181C37.7346 98.3293 40.1392 100.902 43.1619 100.902H56.202C53.1793 100.904 50.7747 98.3309 51.0202 95.3181Z" fill="#BE4B74"/>
	<path d="M147.495 120.646C145.748 120.646 144.331 119.23 144.331 117.482V112.547C144.331 110.799 145.748 109.383 147.495 109.383C149.244 109.383 150.66 110.799 150.66 112.547V117.482C150.66 119.23 149.244 120.646 147.495 120.646Z" fill="#212121" fill-opacity="0.95"/>
	<path d="M92.1302 120.646C90.3816 120.646 88.9658 119.23 88.9658 117.482V112.547C88.9658 110.799 90.3816 109.383 92.1302 109.383C93.8773 109.383 95.2947 110.799 95.2947 112.547V117.482C95.2947 119.23 93.8773 120.646 92.1302 120.646Z" fill="#212121" fill-opacity="0.95"/>
	<defs>
	<linearGradient id="paint0_linear" x1="187.5" y1="-102.5" x2="69.5" y2="569" gradientUnits="userSpaceOnUse">
	<stop stop-color="#367FF6"/>
	<stop offset="1" stop-color="#7457E6"/>
	</linearGradient>
	<linearGradient id="paint1_linear" x1="251.628" y1="31.1677" x2="-143.068" y2="178.335" gradientUnits="userSpaceOnUse">
	<stop offset="0.0989583" stop-color="#FF7B52"/>
	<stop offset="1" stop-color="#7457E6"/>
	</linearGradient>
	</defs>
</svg>
