<svg width="32" height="32" viewBox="0 0 32 32" fill="none" xmlns="http://www.w3.org/2000/svg">
<g clip-path="url(#clip0)">
<path d="M15.9979 0.158203C7.14528 0.175234 -0.0173654 7.36536 -0.00039716 16.2179C0.0139413 23.7049 5.2094 30.1846 12.5142 31.8262C12.8743 31.9058 13.2308 31.6785 13.3106 31.3183C13.321 31.271 13.3263 31.2228 13.3263 31.1743V27.541C13.3263 27.1722 13.0273 26.8731 12.6584 26.8731H11.3227C9.65569 26.8731 8.51763 25.293 7.51983 23.8985L7.21259 23.4737C7.66196 23.7247 8.09149 24.0096 8.4976 24.3259C9.24908 25.0257 10.216 25.4496 11.2399 25.5281C12.2468 25.6682 13.1766 24.9656 13.3167 23.9587C13.3363 23.8179 13.3395 23.6754 13.3263 23.5338V23.0676C13.3263 22.7692 13.1284 22.5069 12.8414 22.4252C9.136 21.3766 6.6475 18.6009 6.6475 15.5194C6.67511 13.852 7.35904 12.2629 8.55094 11.0967C8.74335 10.8984 8.79376 10.6021 8.67786 10.3513C8.19192 9.25084 8.26499 7.98379 8.87422 6.94648C9.81179 7.3241 10.6496 7.91285 11.3226 8.6669C11.5038 8.88186 11.8002 8.96037 12.064 8.86326C14.6077 7.9461 17.3919 7.9461 19.9355 8.86326C20.1982 8.95849 20.4924 8.8801 20.6729 8.6669C21.3453 7.91248 22.1827 7.32329 23.12 6.9451C23.7292 7.98242 23.8023 9.24946 23.3163 10.3499C23.2004 10.6007 23.2508 10.897 23.4433 11.0953C24.636 12.2616 25.3205 13.8513 25.348 15.5193C25.348 18.7545 22.5843 21.6517 18.6252 22.564C18.2657 22.6467 18.0412 23.0051 18.1239 23.3645C18.1369 23.4212 18.1572 23.4757 18.1844 23.5271C18.5585 24.368 18.7248 25.2866 18.6692 26.2052V31.1742C18.6692 31.5431 18.9683 31.8421 19.3371 31.8421C19.3857 31.8419 19.434 31.8366 19.4814 31.8261C28.1186 29.8852 33.547 21.3099 31.606 12.6728C29.9646 5.368 23.4848 0.172604 15.9979 0.158203Z" fill="white"/>
</g>
<defs>
<clipPath id="clip0">
<rect width="32" height="32" fill="white"/>
</clipPath>
</defs>
</svg>
