<svg width="32" height="32" viewBox="0 0 32 32" fill="none" xmlns="http://www.w3.org/2000/svg">
<g clip-path="url(#clip0)">
<path d="M32 16.3674C32 15.2797 31.9101 14.1862 31.7181 13.1162H16.3209V19.2775H25.1382C24.7723 21.2647 23.5967 23.0225 21.8752 24.1395V28.1373H27.1356C30.2246 25.3506 32 21.2353 32 16.3674Z" fill="#4285F4"/>
<path d="M16.3209 31.9995C20.7235 31.9995 24.4363 30.5826 27.1415 28.1369L21.8811 24.1391C20.4176 25.115 18.5282 25.6677 16.3269 25.6677C12.0682 25.6677 8.45733 22.8516 7.16173 19.0654H1.73343V23.1867C4.50456 28.5896 10.1488 31.9995 16.3209 31.9995Z" fill="#34A853"/>
<path d="M7.15556 19.0657C6.47177 17.0785 6.47177 14.9268 7.15556 12.9396V8.81836H1.73325C-0.582023 13.3394 -0.582023 18.6659 1.73325 23.1869L7.15556 19.0657Z" fill="#FBBC04"/>
<path d="M16.3209 6.3319C18.6481 6.29663 20.8974 7.15498 22.5829 8.73058L27.2435 4.16251C24.2924 1.44636 20.3756 -0.0469312 16.3209 0.000101659C10.1488 0.000101659 4.50456 3.40999 1.73343 8.81877L7.15574 12.94C8.44533 9.148 12.0622 6.3319 16.3209 6.3319Z" fill="#EA4335"/>
</g>
<defs>
<clipPath id="clip0">
<rect width="32" height="32" fill="white"/>
</clipPath>
</defs>
</svg>
