<svg width="32" height="32" viewBox="0 0 32 32" fill="none" xmlns="http://www.w3.org/2000/svg">
<g clip-path="url(#clip0)">
<path d="M15.9983 0.157959C7.1457 0.17499 -0.0169381 7.36512 3.00858e-05 16.2177C0.0143685 23.7047 5.20983 30.1844 12.5146 31.8259C12.8748 31.9056 13.2313 31.6782 13.311 31.3181C13.3214 31.2708 13.3268 31.2225 13.3268 31.1741V27.5408C13.3268 27.1719 13.0277 26.8729 12.6589 26.8729H11.3231C9.65612 26.8729 8.51806 25.2927 7.52026 23.8982L7.21301 23.4734C7.66239 23.7245 8.09192 24.0093 8.49802 24.3257C9.24951 25.0255 10.2164 25.4494 11.2403 25.5278C12.2472 25.668 13.177 24.9654 13.3171 23.9585C13.3367 23.8177 13.3399 23.6751 13.3267 23.5335V23.0674C13.3268 22.769 13.1288 22.5067 12.8418 22.4249C9.13643 21.3763 6.64793 18.6007 6.64793 15.5191C6.67554 13.8518 7.35947 12.2627 8.55137 11.0964C8.74378 10.8981 8.79419 10.6018 8.67829 10.3511C8.19235 9.25059 8.26542 7.98355 8.87464 6.94624C9.81221 7.32386 10.65 7.91261 11.3231 8.66666C11.5042 8.88161 11.8006 8.96013 12.0644 8.86302C14.6081 7.94586 17.3923 7.94586 19.936 8.86302C20.1986 8.95825 20.4928 8.87986 20.6733 8.66666C21.3458 7.91223 22.1832 7.32304 23.1204 6.94486C23.7296 7.98217 23.8027 9.24921 23.3168 10.3497C23.2008 10.6005 23.2513 10.8968 23.4437 11.0951C24.6364 12.2613 25.3209 13.8511 25.3484 15.5191C25.3484 18.7542 22.5848 21.6515 18.6256 22.5638C18.2661 22.6464 18.0417 23.0048 18.1243 23.3643C18.1373 23.4209 18.1576 23.4755 18.1848 23.5268C18.559 24.3677 18.7253 25.2863 18.6697 26.205V31.174C18.6697 31.5428 18.9687 31.8419 19.3376 31.8419C19.3861 31.8417 19.4344 31.8363 19.4818 31.8259C28.119 29.8849 33.5474 21.3097 31.6064 12.6725C29.965 5.36776 23.4853 0.17236 15.9983 0.157959Z" fill="white"/>
</g>
<defs>
<clipPath id="clip0">
<rect width="32" height="32" fill="white"/>
</clipPath>
</defs>
</svg>
